<svg xmlns="http://www.w3.org/2000/svg" viewBox="0 0 100 100">
  <defs>
    <linearGradient id="grad1" x1="0%" y1="0%" x2="100%" y2="100%">
      <stop offset="0%" style="stop-color:#1a2e26;stop-opacity:1" />
      <stop offset="100%" style="stop-color:#2C4A3B;stop-opacity:1" />
    </linearGradient>
  </defs>
  <!-- Background Shape -->
  <rect width="100" height="100" rx="20" fill="url(#grad1)" />
  <!-- Stylized Lotus / Spa Icon -->
  <path d="M50 25 C50 25 35 45 35 60 C35 75 50 75 50 75 C50 75 65 75 65 60 C65 45 50 25 50 25" fill="#C5A059" />
  <path d="M50 35 C50 35 40 50 40 60 C40 70 50 70 50 70 C50 70 60 70 60 60 C60 50 50 35 50 35" fill="#1a2e26" />
  <!-- ACCENT DOT -->
  <circle cx="50" cy="55" r="3" fill="#C5A059" />
</svg>
